<?xml version="1.0" standalone="no"?>
<!DOCTYPE svg PUBLIC "-//W3C//DTD SVG 20010904//EN"
 "http://www.w3.org/TR/2001/REC-SVG-20010904/DTD/svg10.dtd">
<svg version="1.0" xmlns="http://www.w3.org/2000/svg"
 width="500.000000pt" height="500.000000pt" viewBox="0 0 500.000000 500.000000"
 preserveAspectRatio="xMidYMid meet">
<metadata>
Created by potrace 1.14, written by Peter Selinger 2001-2017
</metadata>
<g transform="translate(0.000000,500.000000) scale(0.100000,-0.100000)"
fill="#000000" stroke="none">
<path d="M2456 4248 c-276 -16 -505 -113 -694 -293 -182 -174 -262 -377 -249
-635 13 -249 107 -435 300 -593 127 -104 199 -141 630 -322 391 -164 488 -221
540 -319 18 -34 21 -58 22 -141 0 -90 -3 -106 -28 -157 -51 -104 -160 -170
-322 -194 -208 -32 -402 0 -600 99 -90 44 -218 130 -283 189 l-43 39 -174
-208 -174 -208 57 -53 c156 -145 381 -268 612 -335 183 -53 458 -73 662 -47
447 55 779 310 894 685 15 48 18 94 19 235 0 154 -3 185 -23 255 -59 202 -197
364 -427 498 -63 37 -517 235 -602 262 -26 9 -108 46 -182 81 -166 81 -230
138 -257 229 -11 41 -15 76 -10 118 15 149 103 236 286 283 90 23 313 15 420
-16 97 -27 259 -107 335 -165 33 -25 63 -44 66 -43 4 2 73 86 154 187 l147
183 -38 39 c-96 99 -291 214 -461 273 -190 65 -357 87 -577 74z"/>
<path d="M523 844 c-47 -23 -65 -48 -70 -97 -8 -71 15 -103 105 -144 88 -40
112 -58 112 -84 0 -50 -102 -63 -160 -20 l-27 20 -27 -28 c-14 -15 -26 -30
-26 -34 0 -3 21 -19 48 -34 39 -23 58 -28 112 -28 42 1 76 7 98 18 66 36 91
121 53 183 -18 30 -32 38 -143 88 -47 20 -58 29 -58 48 0 13 5 29 12 36 17 17
100 15 126 -4 21 -15 24 -14 42 8 28 34 25 44 -23 67 -52 25 -128 27 -174 5z"/>
<path d="M3767 846 c-87 -32 -127 -100 -127 -216 0 -145 73 -230 196 -230 119
0 194 90 194 234 0 82 -34 155 -88 191 -48 32 -122 41 -175 21z m132 -82 c65
-54 68 -208 6 -270 -37 -37 -108 -34 -145 6 -43 46 -54 145 -24 220 28 71 107
92 163 44z"/>
<path d="M4336 845 c-86 -31 -135 -109 -136 -218 0 -105 34 -168 112 -208 51
-26 139 -25 195 2 l43 21 0 104 0 104 -75 0 -75 0 0 -35 c0 -34 1 -35 41 -35
l40 0 -3 -52 -3 -53 -56 -3 c-45 -2 -61 1 -83 19 -37 29 -56 76 -56 140 0 123
94 193 192 143 30 -16 32 -15 49 7 18 23 18 24 -2 41 -43 37 -119 46 -183 23z"/>
<path d="M930 625 l0 -225 45 0 45 0 0 100 0 100 85 0 85 0 0 -100 0 -100 45
0 45 0 0 225 0 225 -45 0 -45 0 0 -85 0 -85 -85 0 -85 0 0 85 0 85 -45 0 -45
0 0 -225z"/>
<path d="M1480 625 l0 -225 45 0 45 0 0 225 0 225 -45 0 -45 0 0 -225z"/>
<path d="M1770 624 l0 -226 123 3 c105 4 127 7 158 26 39 25 59 59 59 103 0
45 -17 79 -48 97 l-28 16 22 22 c48 49 39 130 -18 165 -28 17 -51 20 -150 20
l-118 0 0 -226z m174 156 c42 -9 56 -23 56 -57 0 -32 -37 -53 -92 -53 l-48 0
0 53 c0 72 5 76 84 57z m54 -196 c25 -17 29 -60 8 -89 -10 -14 -30 -20 -80
-23 l-66 -4 0 66 0 66 58 0 c36 0 66 -6 80 -16z"/>
<path d="M2363 834 c-3 -9 -36 -110 -73 -225 l-68 -209 47 0 47 0 15 58 15 57
75 0 74 0 15 -57 14 -58 49 0 c35 0 48 4 44 13 -2 6 -35 108 -72 225 l-69 212
-53 0 c-40 0 -55 -4 -60 -16z m80 -131 c10 -38 20 -78 23 -90 6 -22 3 -23 -46
-23 -49 0 -52 1 -46 23 3 12 13 52 23 90 10 37 20 67 23 67 3 0 13 -30 23 -67z"/>
<path d="M2760 625 l0 -225 45 0 45 0 0 90 0 90 80 0 80 0 0 40 0 40 -80 0
-80 0 0 60 0 60 95 0 95 0 0 35 0 35 -140 0 -140 0 0 -225z"/>
<path d="M3220 625 l0 -225 130 0 130 0 0 35 0 35 -90 0 -90 0 0 190 0 190
-40 0 -40 0 0 -225z"/>
</g>
</svg>
